# This file uses centimeters as units for non-parametric coordinates.

mtllib hgfhf.mtl
g default
v -331.232904 2.100468 561.411141
v 274.743288 2.100468 561.411141
v -331.232904 664.566317 561.411141
v 274.743288 664.566317 561.411141
v -331.232904 664.566317 -660.412961
v 558.594545 664.566317 -660.412961
v -331.232904 2.100468 -660.412961
v 558.594545 2.100468 -660.412961
v -331.232904 664.566317 271.393620
v -331.232904 2.100468 271.393620
v 558.594545 2.100468 274.767422
v 558.594545 664.566317 274.767422
v 1013.736772 2.100468 274.767422
v 1013.736772 664.566317 274.767422
v 1013.736772 2.100468 -660.412961
v 1013.736772 664.566317 -660.412961
v -331.232904 645.930565 561.411141
v -331.232904 645.930565 271.393620
v -331.232904 645.930565 -660.412961
v 558.594545 645.930565 -660.412961
v 1013.736772 645.930565 -660.412961
v 1013.736772 645.930565 274.767422
v 558.594545 645.930565 274.767422
v 274.743288 645.930565 561.411141
v -409.614587 664.566317 308.795571
v -409.614587 645.930565 308.795571
v -409.614587 645.930565 632.616220
v -409.614587 664.566317 632.616220
v -409.614587 645.930565 -731.618000
v -409.614587 664.566317 -731.618000
v 583.927011 664.566317 -731.618000
v 583.927011 645.930565 -731.618000
v 1092.118534 645.930565 -731.618000
v 1092.118534 664.566317 -731.618000
v 1092.118534 645.930565 312.562597
v 1092.118534 664.566317 312.562597
v 583.927011 645.930565 312.562597
v 583.927011 664.566317 312.562597
v 266.991350 645.930565 632.616220
v 266.991350 664.566317 632.616220
v -331.232904 727.600250 561.411141
v -331.232904 727.600250 271.393620
v -409.614587 727.600250 308.795571
v -409.614587 727.600250 632.616220
v -331.232904 727.600250 -660.412961
v -409.614587 727.600250 -731.618000
v 558.594545 727.600250 -660.412961
v 583.927011 727.600250 -731.618000
v 1013.736772 727.600250 -660.412961
v 1092.118534 727.600250 -731.618000
v 1013.736772 727.600250 274.767422
v 1092.118534 727.600250 312.562597
v 558.594545 727.600250 274.767422
v 583.927011 727.600250 312.562597
v 274.743288 727.600250 561.411141
v 266.991350 727.600250 632.616220
vt 0.620631 0.029315
vt 0.979364 0.276913
vt 0.141292 0.523814
vt 0.371145 0.523840
vt 0.478799 0.632585
vt 0.141276 0.633820
vt 0.642093 0.245963
vt 0.749518 0.489441
vt 0.157188 0.241850
vt 0.478754 0.987310
vt 0.331011 0.474711
vt 0.080143 0.220693
vt 0.100733 0.220693
vt 0.141228 0.987267
vt 0.331005 0.262189
vt 0.668525 0.262178
vt 0.651442 0.632607
vt 0.651394 0.987331
vt 0.044800 0.796872
vt 0.795103 0.033436
vt 0.814521 0.247441
vt 0.044800 0.968607
vt 0.510631 0.241840
vt 0.510626 0.029317
vt 0.158370 0.474717
vt 0.941997 0.980875
vt 0.987154 0.034913
vt 0.729462 0.626156
vt 0.044800 0.390243
vt 0.044800 0.468369
vt 0.044800 0.543362
vt 0.044800 0.715071
vt 0.100733 0.274694
vt 0.080143 0.274694
vt 0.100733 0.984634
vt 0.080143 0.025322
vt 0.080143 0.796872
vt 0.100733 0.796872
vt 0.100733 0.715071
vt 0.080143 0.715071
vt 0.080143 0.547360
vt 0.100733 0.547360
vt 0.080143 0.468369
vt 0.100733 0.468369
vt 0.100733 0.390243
vt 0.080143 0.390243
vt 0.112991 0.220693
vt 0.112991 0.274694
vt 0.056899 0.274694
vt 0.056899 0.220693
vt 0.068136 0.220693
vt 0.068136 0.274694
vt 0.112991 0.038094
vt 0.056899 0.968607
vt 0.068136 0.984634
vt 0.056899 0.796872
vt 0.068136 0.796872
vt 0.112991 0.796872
vt 0.112991 0.715071
vt 0.056899 0.715071
vt 0.068136 0.715071
vt 0.112991 0.547360
vt 0.056899 0.543362
vt 0.068136 0.547360
vt 0.112991 0.468369
vt 0.056899 0.468369
vt 0.068136 0.468369
vt 0.112991 0.390243
vt 0.056899 0.390243
vt 0.068136 0.390243
vt 0.044800 0.274694
vt 0.044800 0.220693
vt 0.729472 0.980886
vt 0.987162 0.247436
vt 0.814514 0.034916
vt 0.795111 0.245958
vt 0.642087 0.033439
vt 0.979372 0.489435
vt 0.749510 0.276921
vt 0.620642 0.241834
vt 0.941986 0.626151
vt 0.158365 0.262194
vt 0.668536 0.474704
vt 0.157182 0.029325
vt 0.112991 0.970378
vt 0.044800 0.040111
vt 0.056899 0.040111
vt 0.080143 0.984634
vt 0.068136 0.025322
vt 0.100733 0.025322
vn 0.000000 0.000000 1.000000
vn 0.000000 0.000000 1.000000
vn 0.000000 0.000000 1.000000
vn 0.000000 0.000000 1.000000
vn 0.000000 1.000000 0.000000
vn 0.000000 1.000000 0.000000
vn 0.000000 1.000000 0.000000
vn 0.000000 1.000000 0.000000
vn 0.000000 0.000000 -1.000000
vn 0.000000 0.000000 -1.000000
vn 0.000000 0.000000 -1.000000
vn 0.000000 0.000000 -1.000000
vn 0.710559 0.000000 0.703637
vn 0.710559 0.000000 0.703637
vn 0.710559 0.000000 0.703637
vn 0.710559 0.000000 0.703637
vn -1.000000 0.000000 0.000000
vn -1.000000 0.000000 0.000000
vn -1.000000 0.000000 0.000000
vn -1.000000 0.000000 0.000000
vn -1.000000 0.000000 0.000000
vn -1.000000 0.000000 0.000000
vn -1.000000 0.000000 0.000000
vn -1.000000 0.000000 0.000000
vn 1.000000 0.000000 0.000000
vn 1.000000 0.000000 0.000000
vn 1.000000 0.000000 0.000000
vn 1.000000 0.000000 0.000000
vn 0.000000 1.000000 0.000000
vn 0.000000 1.000000 0.000000
vn 0.000000 1.000000 0.000000
vn 0.000000 1.000000 0.000000
vn 0.000000 0.000000 1.000000
vn 0.000000 0.000000 1.000000
vn 0.000000 0.000000 1.000000
vn 0.000000 0.000000 1.000000
vn 0.000000 0.000000 -1.000000
vn 0.000000 0.000000 -1.000000
vn 0.000000 1.000000 0.000000
vn 0.000000 1.000000 0.000000
vn -1.000000 0.000000 0.000000
vn -1.000000 0.000000 0.000000
vn -1.000000 0.000000 0.000000
vn -1.000000 0.000000 0.000000
vn -1.000000 0.000000 0.000000
vn -1.000000 0.000000 0.000000
vn -1.000000 0.000000 0.000000
vn -1.000000 0.000000 0.000000
vn 0.000000 0.000000 -1.000000
vn 0.000000 0.000000 -1.000000
vn 0.000000 0.000000 -1.000000
vn 0.000000 0.000000 -1.000000
vn 0.000000 0.000000 -1.000000
vn 0.000000 0.000000 -1.000000
vn 1.000000 0.000000 0.000000
vn 1.000000 0.000000 0.000000
vn 1.000000 0.000000 0.000000
vn 1.000000 0.000000 0.000000
vn 0.000000 0.000000 1.000000
vn 0.000000 0.000000 1.000000
vn 0.000000 0.000000 1.000000
vn 0.000000 0.000000 1.000000
vn 0.710559 0.000000 0.703637
vn 0.710559 0.000000 0.703637
vn 0.710559 0.000000 0.703637
vn 0.710559 0.000000 0.703637
vn 0.000000 0.000000 1.000000
vn 0.000000 0.000000 1.000000
vn 0.000000 0.000000 1.000000
vn 0.000000 0.000000 1.000000
vn 0.000000 -1.000000 0.000000
vn 0.000000 -1.000000 0.000000
vn 0.000000 -1.000000 0.000000
vn 0.000000 -1.000000 0.000000
vn 0.000000 1.000000 0.000000
vn 0.000000 1.000000 0.000000
vn 0.000000 1.000000 0.000000
vn 0.000000 1.000000 0.000000
vn 0.000000 -1.000000 0.000000
vn 0.000000 -1.000000 0.000000
vn 0.000000 -1.000000 0.000000
vn 0.000000 -1.000000 0.000000
vn 0.000000 1.000000 0.000000
vn 0.000000 1.000000 0.000000
vn 0.000000 1.000000 0.000000
vn 0.000000 1.000000 0.000000
vn 0.000000 1.000000 -0.000001
vn 0.000000 1.000000 -0.000001
vn 0.000000 1.000000 -0.000001
vn 0.000000 1.000000 -0.000001
vn 0.000000 -1.000000 0.000000
vn 0.000000 -1.000000 0.000000
vn 0.000000 -1.000000 0.000000
vn 0.000000 -1.000000 0.000000
vn 0.000000 -1.000000 0.000000
vn 0.000000 -1.000000 0.000000
vn 0.000000 -1.000000 0.000000
vn 0.000000 -1.000000 0.000000
vn 0.000000 1.000000 0.000000
vn 0.000000 1.000000 0.000000
vn 0.000000 1.000000 0.000000
vn 0.000000 1.000000 0.000000
vn 0.000000 -1.000000 0.000000
vn 0.000000 -1.000000 0.000000
vn 0.000000 -1.000000 0.000000
vn 0.000000 -1.000000 0.000000
vn 0.000000 1.000000 0.000000
vn 0.000000 1.000000 0.000000
vn 0.000000 1.000000 0.000000
vn 0.000000 1.000000 0.000000
vn 0.000000 -1.000000 0.000000
vn 0.000000 -1.000000 0.000000
vn 0.000000 -1.000000 0.000000
vn 0.000000 -1.000000 0.000000
vn 0.000000 1.000000 -0.000001
vn 0.000000 1.000000 -0.000001
vn 0.000000 1.000000 -0.000001
vn 0.000000 1.000000 -0.000001
vn 0.000000 -1.000000 0.000000
vn 0.000000 -1.000000 0.000000
vn 0.000000 -1.000000 0.000000
vn 0.000000 -1.000000 0.000000
vn 0.000000 1.000000 -0.000000
vn 0.000000 1.000000 -0.000000
vn 0.000000 1.000000 -0.000000
vn 0.000000 1.000000 -0.000000
vn 0.000000 -1.000000 -0.000000
vn 0.000000 -1.000000 -0.000000
vn 0.000000 -1.000000 -0.000000
vn 0.000000 -1.000000 -0.000000
vn 0.000000 1.000000 -0.000000
vn 0.000000 1.000000 -0.000000
vn 0.000000 1.000000 -0.000000
vn 0.000000 1.000000 -0.000000
vn 1.000000 0.000000 0.000000
vn 1.000000 0.000000 0.000000
vn 1.000000 0.000000 0.000000
vn 1.000000 0.000000 0.000000
vn -1.000000 0.000000 0.000000
vn -1.000000 0.000000 0.000000
vn -1.000000 0.000000 0.000000
vn -1.000000 0.000000 0.000000
vn 1.000000 0.000000 0.000000
vn 1.000000 0.000000 0.000000
vn 1.000000 0.000000 0.000000
vn 1.000000 0.000000 0.000000
vn -1.000000 0.000000 0.000000
vn -1.000000 0.000000 0.000000
vn -1.000000 0.000000 0.000000
vn -1.000000 0.000000 0.000000
vn 0.000000 0.000000 1.000000
vn 0.000000 0.000000 1.000000
vn 0.000000 0.000000 1.000000
vn 0.000000 0.000000 1.000000
vn 0.000000 0.000000 -1.000000
vn 0.000000 0.000000 -1.000000
vn 0.000000 0.000000 -1.000000
vn 0.000000 0.000000 -1.000000
vn 0.000000 0.000000 1.000000
vn 0.000000 0.000000 1.000000
vn 0.000000 0.000000 1.000000
vn 0.000000 0.000000 1.000000
vn 0.000000 0.000000 -1.000000
vn 0.000000 0.000000 -1.000000
vn 0.000000 0.000000 -1.000000
vn 0.000000 0.000000 -1.000000
vn -1.000000 0.000000 0.000000
vn -1.000000 0.000000 0.000000
vn -1.000000 0.000000 0.000000
vn -1.000000 0.000000 0.000000
vn 1.000000 0.000000 0.000000
vn 1.000000 0.000000 0.000000
vn 1.000000 0.000000 0.000000
vn 1.000000 0.000000 0.000000
vn 0.000000 0.000000 -1.000000
vn 0.000000 0.000000 -1.000000
vn 0.000000 0.000000 -1.000000
vn 0.000000 0.000000 -1.000000
vn 0.000000 0.000000 1.000000
vn 0.000000 0.000000 1.000000
vn 0.000000 0.000000 1.000000
vn 0.000000 0.000000 1.000000
vn -0.710559 0.000000 -0.703637
vn -0.710559 0.000000 -0.703637
vn -0.710559 0.000000 -0.703637
vn -0.710559 0.000000 -0.703637
vn 0.710559 0.000000 0.703637
vn 0.710559 0.000000 0.703637
vn 0.710559 0.000000 0.703637
vn 0.710559 0.000000 0.703637
vn 0.000000 0.000000 -1.000000
vn 0.000000 0.000000 -1.000000
vn 0.000000 0.000000 -1.000000
vn 0.000000 0.000000 -1.000000
vn 0.000000 0.000000 1.000000
vn 0.000000 0.000000 1.000000
vn 0.000000 0.000000 1.000000
vn 0.000000 0.000000 1.000000
s off
g pCube1
usemtl initialShadingGroup
f 1/79/1 2/2/2 24/78/3 17/8/4
f 3/3/5 4/4/6 12/5/7 9/6/8
s 1
f 19/83/9 20/11/10 8/15/11 7/16/12
s off
f 2/77/13 11/20/14 23/76/15 24/7/16
f 17/80/17 18/23/18 10/24/19 1/1/20
f 7/84/21 10/24/22 18/23/23 19/9/24
f 21/81/25 22/26/26 13/73/27 15/28/28
s 2
f 9/6/29 12/5/30 6/10/31 5/14/32
s off
f 22/74/33 23/21/34 11/75/35 13/27/36
s 1
f 8/15/11 20/11/10 21/25/37 15/82/38
s 2
f 6/10/31 12/5/30 14/17/39 16/18/40
s off
f 25/12/41 26/13/42 27/33/43 28/34/44
f 29/90/45 26/13/46 25/12/47 30/36/48
s 3
f 30/88/49 31/37/50 32/38/51 29/35/52
f 33/39/53 32/38/51 31/37/50 34/40/54
s off
f 36/41/55 35/42/56 33/39/57 34/40/58
f 38/43/59 37/44/60 35/42/61 36/41/62
f 39/45/63 37/44/64 38/43/65 40/46/66
f 27/33/67 39/45/68 40/46/69 28/34/70
f 18/47/71 17/48/72 27/33/73 26/13/74
f 41/49/75 42/50/76 43/51/77 44/52/78
f 19/53/79 18/47/80 26/13/81 29/90/82
f 42/50/83 45/87/84 46/89/85 43/51/86
f 45/54/87 47/56/88 48/57/89 46/55/90
f 20/58/91 19/85/92 29/35/93 32/38/94
f 21/59/95 20/58/96 32/38/97 33/39/98
f 47/56/99 49/60/100 50/61/101 48/57/102
f 22/62/103 21/59/104 33/39/105 35/42/106
f 49/60/107 51/63/108 52/64/109 50/61/110
f 23/65/111 22/62/112 35/42/113 37/44/114
f 51/63/115 53/66/116 54/67/117 52/64/118
f 24/68/119 23/65/120 37/44/121 39/45/122
f 53/66/123 55/69/124 56/70/125 54/67/126
f 17/48/127 24/68/128 39/45/129 27/33/130
f 55/69/131 41/49/132 44/52/133 56/70/134
f 3/71/135 9/72/136 42/50/137 41/49/138
f 25/12/139 28/34/140 44/52/141 43/51/142
f 9/72/143 5/86/144 45/87/145 42/50/146
f 30/36/147 25/12/148 43/51/149 46/89/150
f 5/22/151 6/19/152 47/56/153 45/54/154
f 31/37/155 30/88/156 46/55/157 48/57/158
f 6/19/159 16/32/160 49/60/161 47/56/162
f 34/40/163 31/37/164 48/57/165 50/61/166
f 16/32/167 14/31/168 51/63/169 49/60/170
f 36/41/171 34/40/172 50/61/173 52/64/174
f 14/31/175 12/30/176 53/66/177 51/63/178
f 38/43/179 36/41/180 52/64/181 54/67/182
f 12/30/183 4/29/184 55/69/185 53/66/186
f 40/46/187 38/43/188 54/67/189 56/70/190
f 4/29/191 3/71/192 41/49/193 55/69/194
f 28/34/195 40/46/196 56/70/197 44/52/198
g default
v -288.501250 514.665841 706.359759
v 225.819606 514.665841 706.359759
v -288.501250 647.379931 555.308724
v 225.819606 647.379931 555.308724
vt 0.514993 0.497913
vt 0.795234 0.497944
vt 0.795222 0.607503
vt 0.514981 0.607471
vn 0.000000 0.751233 0.660037
vn 0.000000 0.751233 0.660037
vn 0.000000 0.751233 0.660037
vn 0.000000 0.751233 0.660037
s off
g pPlane1
usemtl initialShadingGroup
f 57/91/199 58/92/200 60/93/201 59/94/202
