# This file uses centimeters as units for non-parametric coordinates.

mtllib House03.mtl
g default
v -8385.262521 0.784070 -1686.134780
v -7549.146208 0.784070 -1686.134780
v -8361.936664 651.546261 -1742.636446
v -7575.276462 651.546261 -1686.134780
v -8354.515417 651.546261 -2372.694295
v -7658.217095 651.546261 -2418.237041
v -8385.262521 0.784070 -2418.237041
v -7623.919243 0.784070 -2418.237041
v -8331.604199 651.546261 -1770.535654
v -7609.150904 651.546261 -1718.644991
v -7684.805845 651.546261 -2386.433570
v -8324.845577 651.546261 -2344.570794
v -8331.604199 610.135324 -1770.535654
v -7609.150904 610.135324 -1718.644991
v -7684.805845 610.135324 -2386.433570
v -8324.845577 610.135324 -2344.570794
v -8385.262521 0.784070 -2144.036092
v -8356.740914 651.546261 -2134.405997
v -8326.873323 651.546261 -2127.105927
v -8326.873323 610.135324 -2127.105927
v -7651.350827 611.538574 -2136.904983
v -7651.350827 652.949627 -2136.904983
v -7622.576449 652.949627 -2144.974107
v -7601.487252 0.784070 -2144.036092
v -8385.262521 0.784070 -1945.693000
v -8359.858683 651.546261 -1963.708497
v -8329.712008 651.546261 -1971.586666
v -8329.712008 610.135324 -1971.586666
v -7630.334192 610.135324 -1955.047834
v -7630.334192 651.546261 -1955.047834
v -7598.498659 651.546261 -1945.693000
v -7570.082307 0.784070 -1945.693000
v -8373.598397 326.165165 -1714.385002
v -7562.210538 326.165165 -1686.134780
v -7584.290084 326.165165 -1945.693000
v -7606.651107 327.568454 -2144.974107
v -7641.066973 326.165165 -2418.237041
v -8369.888969 326.165165 -2395.465319
v -8371.002116 326.165165 -2139.220696
v -8372.559406 326.165165 -1954.701185
v -8280.600367 322.421944 -2138.852751
v -8282.160048 322.421944 -1954.333240
v -8294.862366 -2.959210 -2143.667973
v -8294.862366 -2.959210 -1945.324706
vt 0.190279 0.827072
vt 0.593846 0.828445
vt 0.322768 0.136934
vt 0.049865 0.139442
vt 0.061049 0.037965
vt 0.319825 0.049411
vt 0.970840 0.981828
vt 0.623739 0.978877
vt 0.419010 0.654376
vt 0.418337 0.492896
vt 0.590406 0.436522
vt 0.734455 0.436535
vt 0.353867 0.300893
vt 0.011294 0.335329
vt 0.025848 0.320652
vt 0.340453 0.289135
vt 0.039844 0.136880
vt 0.027099 0.133641
vt 0.039903 0.013565
vt 0.051926 0.027256
vt 0.734487 0.052949
vt 0.737024 0.619597
vt 0.343998 0.027136
vt 0.331456 0.039636
vt 0.347480 0.130694
vt 0.334634 0.134174
vt 0.036910 0.309554
vt 0.328155 0.280397
vt 0.555336 0.493019
vt 0.555529 0.654395
vt 0.625076 0.052949
vt 0.603166 0.619546
vt 0.350632 0.204849
vt 0.337507 0.201758
vt 0.325428 0.199503
vt 0.043180 0.213427
vt 0.032622 0.216805
vt 0.018721 0.221267
vt 0.319694 0.653734
vt 0.318601 0.492259
vt 0.586709 0.990243
vt 0.194709 0.989430
vt 0.189110 0.493126
vt 0.190584 0.654475
vt 0.616526 0.816627
vt 0.187371 0.330862
vt 0.838179 0.436605
vt 0.979000 0.819295
vt 0.430735 0.052949
vt 0.926416 0.052949
vt 0.734487 0.106763
vt 0.625076 0.106763
vt 0.430735 0.106763
vt 0.926416 0.106763
vt 0.832955 0.619648
vt 0.973292 0.436677
vt 0.957298 0.619740
vt 0.577467 0.253361
vt 0.731728 0.253318
vt 0.843226 0.253496
vt 0.989250 0.253520
vt 0.609143 0.655165
vt 0.987344 0.657556
vt 0.317360 0.329815
vt 0.417795 0.329720
vt 0.555190 0.330292
vt 0.185231 0.664750
vt 0.600874 0.666758
vt 0.142281 0.700600
vt 0.032705 0.700663
vt 0.029828 0.507227
vt 0.147604 0.507229
vn -0.034482 0.043271 0.998468
vn -0.034408 0.043271 0.998471
vn -0.052911 0.043197 0.997664
vn -0.052911 0.043197 0.997664
vn -0.001120 0.999999 0.000205
vn -0.001117 0.999999 0.000350
vn -0.001182 0.999995 -0.002925
vn -0.001182 0.999995 -0.002925
vn -0.047852 0.034799 -0.998248
vn -0.047852 0.034799 -0.998248
vn -0.030786 0.034870 -0.998918
vn -0.030853 0.034870 -0.998916
vn 0.991316 0.048502 -0.122227
vn 0.992057 0.040233 -0.119183
vn 0.992441 0.042100 -0.115275
vn 0.990594 0.050348 -0.127238
vn -0.998948 0.045670 -0.004247
vn -0.998985 0.044558 -0.006607
vn -0.998992 0.043891 -0.009446
vn -0.998929 0.045776 -0.006744
vn 0.000000 1.000000 -0.000000
vn 0.000000 1.000000 -0.000000
vn 0.000000 1.000000 -0.000000
vn 0.000000 1.000000 -0.000000
vn -0.001896 0.999998 0.001047
vn -0.002317 0.999997 -0.000482
vn -0.000896 0.999999 -0.001245
vn -0.001035 0.999998 -0.001436
vn 0.000000 1.000000 0.000000
vn 0.000000 1.000000 0.000000
vn 0.000000 1.000000 0.000000
vn 0.000000 1.000000 0.000000
vn 0.071641 0.000000 -0.997431
vn 0.071641 0.000000 -0.997431
vn 0.071641 0.000000 -0.997431
vn 0.071641 0.000000 -0.997431
vn -0.992123 0.000000 0.125270
vn -0.992121 0.000000 0.125283
vn -0.991132 0.000000 0.132884
vn -0.991132 0.000000 0.132884
vn 0.065267 0.000000 0.997868
vn 0.065267 0.000000 0.997868
vn 0.065267 0.000000 0.997868
vn 0.065267 0.000000 0.997868
vn 0.999956 0.000000 0.009324
vn 0.999915 0.000000 0.013046
vn 0.999915 0.000000 0.013046
vn 0.999956 0.000000 0.009324
vn -0.999245 0.038271 -0.006703
vn -0.999196 0.038921 -0.009584
vn 0.000000 1.000000 0.000000
vn 0.000000 1.000000 0.000000
vn 0.999912 0.000000 0.013267
vn 0.999912 0.000000 0.013267
vn -0.000450 0.999998 0.001822
vn -0.000408 0.999999 0.001650
vn -0.994952 0.000000 0.100350
vn -0.994945 0.000000 0.100419
vn -0.000088 0.999991 0.004145
vn -0.000047 0.999997 0.002234
vn 0.994103 0.043571 -0.099303
vn 0.993973 0.039904 -0.102103
vn -0.999300 0.037174 -0.004206
vn -0.999292 0.037024 -0.006751
vn 0.999956 0.000000 0.009411
vn 0.999956 0.000000 0.009411
vn 0.000000 1.000000 -0.000000
vn 0.000000 1.000000 -0.000000
vn -0.996009 0.000000 0.089249
vn -0.996009 0.000000 0.089249
vn 0.995534 0.041723 -0.084682
vn 0.995347 0.041717 -0.086861
vn -0.017129 0.043327 0.998914
vn -0.017129 0.043327 0.998914
vn 0.995716 0.041728 -0.082508
vn 0.993825 0.036312 -0.104845
vn 0.992710 0.031907 -0.116231
vn 0.994073 0.033860 -0.103310
vn -0.015270 0.034925 -0.999273
vn -0.015270 0.034925 -0.999273
vn -0.998959 0.045579 -0.002096
vn -0.998959 0.045579 -0.002096
vn -0.999135 0.041373 -0.004070
vn -0.999135 0.041373 -0.004070
vn -0.999135 0.041373 -0.004070
vn -0.999135 0.041373 -0.004070
vn -0.999302 0.037299 -0.002077
vn -0.999302 0.037299 -0.002077
vn -0.041370 -0.999144 -0.000349
vn -0.041370 -0.999144 -0.000349
vn -0.041370 -0.999144 -0.000349
vn -0.041370 -0.999144 -0.000349
vn -0.004675 -0.014592 0.999883
vn -0.004675 -0.014592 0.999883
vn -0.004675 -0.014592 0.999883
vn -0.004675 -0.014592 0.999883
vn 0.002920 -0.027789 -0.999610
vn 0.002920 -0.027789 -0.999610
vn 0.002920 -0.027789 -0.999610
vn 0.002920 -0.027789 -0.999610
s 1
g pCube16
usemtl initialShadingGroup
f 33/1/1 34/2/2 4/41/3 3/42/4
s 2
f 20/3/5 21/4/6 15/5/7 16/6/8
s 3
f 5/7/9 6/8/10 37/45/11 38/48/12
s 4
f 23/9/13 36/10/14 37/29/15 6/30/16
s 5
f 38/11/17 39/12/18 18/22/19 5/32/20
s 6
f 3/13/21 4/14/22 10/15/23 9/16/24
f 22/17/25 23/18/26 6/19/27 11/20/28
f 6/19/27 5/23/29 12/24/30 11/20/28
f 5/23/29 18/25/31 19/26/32 12/24/30
s off
f 9/16/33 10/15/34 14/27/35 13/28/36
s 8
f 21/4/37 22/17/38 11/20/39 15/5/40
s off
f 11/20/41 12/24/42 16/6/43 15/5/44
s 9
f 12/24/45 19/26/46 20/3/47 16/6/48
s 5
f 18/22/19 39/12/18 40/47/49 26/55/50
s 6
f 19/26/32 18/25/31 26/33/51 27/34/52
s 9
f 20/3/47 19/26/46 27/34/53 28/35/54
s 2
f 28/35/55 29/36/56 21/4/6 20/3/5
s 8
f 29/36/57 30/37/58 22/17/38 21/4/37
s 6
f 30/37/59 31/38/60 23/18/26 22/17/25
s 4
f 31/39/61 35/40/62 36/10/14 23/9/13
s 5
f 26/55/50 40/47/49 33/56/63 3/57/64
s 6
f 27/34/52 26/33/51 3/13/21 9/16/24
s 9
f 28/35/54 27/34/53 9/16/65 13/28/66
s 2
f 13/28/67 14/27/68 29/36/56 28/35/55
s 8
f 10/15/69 30/37/58 29/36/57 14/27/70
s 6
f 4/14/22 31/38/60 30/37/59 10/15/23
s 4
f 34/43/71 35/40/62 31/39/61 4/44/72
s 1
f 1/67/73 2/68/74 34/2/2 33/1/1
s 4
f 2/46/75 32/64/76 35/40/62 34/43/71
f 36/10/14 35/40/62 32/64/76 24/65/77
f 37/29/15 36/10/14 24/65/77 8/66/78
s 3
f 38/48/12 37/45/11 8/62/79 7/63/80
s 5
f 7/58/81 17/59/82 39/12/18 38/11/17
s off
f 42/69/83 41/70/84 43/71/85 44/72/86
s 5
f 33/56/63 40/47/49 25/60/87 1/61/88
s off
f 40/51/89 39/52/90 41/31/91 42/21/92
f 39/52/93 17/53/94 43/49/95 41/31/96
f 25/54/97 40/51/98 42/21/99 44/50/100
