# This file uses centimeters as units for non-parametric coordinates.

mtllib House01.mtl
g default
v -8498.650230 13.351470 674.101166
v -7636.527979 13.351470 674.101166
v -8498.650230 1817.361581 674.101166
v -7636.527979 1805.324028 634.671607
v -8498.650230 1794.919815 -209.546032
v -7636.527979 1817.361581 -133.983693
v -8498.650230 13.351470 -188.021907
v -7636.527979 13.351470 -188.021907
v -8458.855672 1817.334379 632.435007
v -7676.322538 1804.849733 596.655742
v -7676.332404 1817.356468 -97.524584
v -8458.845805 1795.428265 -166.100512
v -8458.599972 1773.974153 632.708076
v -7676.066016 1761.490120 596.928810
v -7676.075882 1773.996242 -97.251541
v -8458.590106 1752.068243 -165.827469
v -8498.650230 13.351470 243.039630
v -8498.650230 1806.140903 232.277567
v -8458.850738 1806.381629 233.167248
v -8458.595039 1763.021607 233.440316
v -7676.070949 1767.743079 249.838634
v -7676.327471 1811.103305 249.565592
v -7636.527979 1811.342804 250.343970
v -7636.527979 13.351470 243.039630
v -8498.650230 13.351470 458.570398
v -8498.650230 1811.751242 453.189354
v -8458.853205 1811.858209 432.801128
v -8458.597506 1768.498187 433.074196
v -7676.068482 1764.616497 423.383748
v -7676.325004 1807.976724 423.110680
v -7636.527979 1808.333621 442.507788
v -7636.527979 13.351470 458.570398
v -8498.650230 373.485614 674.101166
v -7636.527979 370.460477 664.192608
v -7636.527979 371.216710 454.533883
v -7636.527979 371.973046 244.875183
v -7636.527979 373.485614 -174.442217
v -8498.650230 367.846335 -193.430854
v -8498.650230 370.665923 240.335156
v -8498.650230 372.075718 457.218161
v -8402.640442 13.351470 243.039630
v -8402.640442 370.665923 240.335156
v -8402.640442 13.351470 458.570398
v -8402.640442 372.075718 457.218161
vt 0.024729 0.486707
vt 0.374637 0.185981
vt 0.191144 0.023931
vt 0.182990 0.300464
vt 0.063314 0.286477
vt 0.044909 0.028972
vt 0.641389 0.973753
vt 0.355143 0.972340
vt 0.859149 0.186696
vt 0.859589 0.327085
vt 0.173623 0.487602
vt 0.170624 0.963611
vt 0.353688 0.024296
vt 0.322072 0.327511
vt 0.309060 0.313150
vt 0.337725 0.037101
vt 0.182273 0.315955
vt 0.180636 0.330197
vt 0.046404 0.312756
vt 0.060081 0.300079
vt 0.024475 0.962120
vt 0.247580 0.488047
vt 0.026139 0.013188
vt 0.041827 0.026851
vt 0.189813 0.005652
vt 0.190806 0.019982
vt 0.305864 0.299491
vt 0.334343 0.038836
vt 0.371873 0.316997
vt 0.376012 0.120798
vt 0.243203 0.964352
vt 0.321211 0.488489
vt 0.273018 0.011179
vt 0.263353 0.024225
vt 0.262724 0.028044
vt 0.245266 0.302761
vt 0.245473 0.318201
vt 0.253344 0.332052
vt 0.858931 0.116867
vt 0.858713 0.047281
vt 0.315455 0.965089
vt 0.377383 0.055830
vt 0.975788 0.044357
vt 0.976473 0.115566
vt 0.351948 0.493625
vt 0.977161 0.187027
vt 0.978544 0.330713
vt 0.642293 0.489743
vt 0.528797 0.327220
vt 0.456170 0.327220
vt 0.456170 0.359425
vt 0.336202 0.359425
vt 0.177623 0.480044
vt 0.178243 0.370472
vt 0.336202 0.327220
vt 0.244334 0.370503
vt 0.243758 0.480469
vt 0.649141 0.359425
vt 0.528797 0.359425
vt 0.680635 0.483612
vt 0.967812 0.481860
vt 0.970664 0.964983
vt 0.676907 0.969822
vt 0.681537 0.366065
vt 0.967175 0.364111
vt 0.350957 0.371515
vt 0.642501 0.368921
vt 0.025285 0.362990
vt 0.174646 0.363452
vt 0.248842 0.363681
vt 0.322716 0.363909
vt 0.649141 0.327220
vn 0.024125 0.010960 0.999649
vn 0.024122 0.010961 0.999649
vn 0.028691 0.010250 0.999536
vn 0.028691 0.010250 0.999536
vn -0.011388 0.999915 -0.006297
vn -0.011197 0.999918 -0.006297
vn -0.016683 0.999841 -0.006297
vn -0.016683 0.999841 -0.006297
vn 0.054615 0.008466 -0.998472
vn 0.054615 0.008466 -0.998472
vn 0.045973 0.009055 -0.998902
vn 0.045929 0.009058 -0.998904
vn 1.000000 0.000000 0.000000
vn 1.000000 0.000000 0.000000
vn 1.000000 0.000000 0.000000
vn 1.000000 0.000000 0.000000
vn -1.000000 -0.000000 0.000000
vn -1.000000 -0.000000 0.000000
vn -1.000000 -0.000000 0.000000
vn -1.000000 -0.000000 0.000000
vn 0.007263 0.999920 -0.010375
vn 0.007867 0.999967 -0.002100
vn 0.007867 0.999967 -0.002100
vn 0.007261 0.999920 -0.010376
vn -0.000860 0.999859 0.016776
vn -0.001040 0.999859 0.016776
vn -0.016943 0.999856 0.000787
vn -0.016946 0.999856 0.000785
vn -0.015724 0.999791 -0.013069
vn -0.015724 0.999791 -0.013069
vn 0.000008 0.999653 -0.026354
vn -0.000196 0.999653 -0.026354
vn -0.045778 -0.006561 -0.998930
vn -0.045778 -0.006561 -0.998930
vn -0.045778 -0.006561 -0.998930
vn -0.045778 -0.006561 -0.998930
vn -0.999983 -0.005917 -0.000092
vn -0.999982 -0.005917 -0.000092
vn -0.999983 -0.005917 -0.000092
vn -0.999983 -0.005917 -0.000092
vn -0.087459 0.005756 0.996151
vn -0.087459 0.005756 0.996151
vn -0.087459 0.005756 0.996151
vn -0.087459 0.005756 0.996151
vn 0.999983 0.005896 -0.000149
vn 0.999983 0.005896 -0.000149
vn 0.999983 0.005896 -0.000149
vn 0.999983 0.005896 -0.000149
vn -1.000000 -0.000000 0.000000
vn -1.000000 -0.000000 0.000000
vn -0.017799 0.999494 -0.026349
vn -0.014567 0.999547 -0.026351
vn 0.999983 0.005896 -0.000149
vn 0.999983 0.005896 -0.000149
vn 0.004925 0.999968 -0.006297
vn 0.004840 0.999968 -0.006297
vn -0.999983 -0.005917 -0.000092
vn -0.999983 -0.005917 -0.000092
vn -0.015583 0.999738 0.016774
vn -0.018700 0.999684 0.016774
vn 1.000000 0.000000 0.000000
vn 1.000000 0.000000 0.000000
vn -1.000000 0.000000 0.000000
vn -1.000000 0.000000 0.000000
vn 0.999983 0.005896 -0.000149
vn 0.999983 0.005896 -0.000149
vn 0.010273 0.999927 -0.006296
vn 0.010273 0.999927 -0.006296
vn -0.999982 -0.005917 -0.000092
vn -0.999983 -0.005917 -0.000092
vn 1.000000 0.000000 0.000000
vn 1.000000 0.000000 0.000000
vn 0.005770 0.013813 0.999888
vn 0.005770 0.013813 0.999888
vn 1.000000 0.000000 0.000000
vn 1.000000 0.000000 0.000000
vn 1.000000 0.000000 0.000000
vn 1.000000 0.000000 0.000000
vn 0.010974 0.011432 -0.999874
vn 0.010974 0.011432 -0.999874
vn -1.000000 -0.000000 0.000000
vn -1.000000 -0.000000 0.000000
vn -1.000000 0.000000 0.000000
vn -1.000000 0.000000 0.000000
vn 0.000000 0.007569 0.999971
vn 0.000000 0.007569 0.999971
vn 0.000000 0.007569 0.999971
vn 0.000000 0.007569 0.999971
vn 0.000000 -0.003770 -0.999993
vn 0.000000 -0.003770 -0.999993
vn 0.000000 -0.003770 -0.999993
vn 0.000000 -0.003770 -0.999993
vn 0.000000 -0.999979 0.006500
vn 0.000000 -0.999979 0.006500
vn 0.000000 -0.999979 0.006500
vn 0.000000 -0.999979 0.006500
vn -1.000000 0.000000 0.000000
vn -1.000000 0.000000 0.000000
vn -1.000000 0.000000 0.000000
vn -1.000000 0.000000 0.000000
s 1
g pCube14
usemtl initialShadingGroup
f 33/60/1 34/61/2 4/62/3 3/63/4
s 2
f 20/3/5 21/4/6 15/5/7 16/6/8
s 3
f 5/7/9 6/8/10 37/45/11 38/48/12
s 4
f 23/2/13 36/9/14 37/10/15 6/29/16
s 5
f 38/1/17 39/11/18 18/12/19 5/21/20
s 6
f 3/13/21 4/14/22 10/15/23 9/16/24
f 22/17/25 23/18/26 6/19/27 11/20/28
f 6/19/27 5/23/29 12/24/30 11/20/28
f 5/23/29 18/25/31 19/26/32 12/24/30
s off
f 9/16/33 10/15/34 14/27/35 13/28/36
s 8
f 21/4/37 22/17/38 11/20/39 15/5/40
s off
f 11/20/41 12/24/42 16/6/43 15/5/44
s 9
f 12/24/45 19/26/46 20/3/47 16/6/48
s 5
f 18/12/19 39/11/18 40/22/49 26/31/50
s 6
f 19/26/32 18/25/31 26/33/51 27/34/52
s 9
f 20/3/47 19/26/46 27/34/53 28/35/54
s 2
f 28/35/55 29/36/56 21/4/6 20/3/5
s 8
f 29/36/57 30/37/58 22/17/38 21/4/37
s 6
f 30/37/59 31/38/60 23/18/26 22/17/25
s 4
f 31/30/61 35/39/62 36/9/14 23/2/13
s 5
f 26/31/50 40/22/49 33/32/63 3/41/64
s 6
f 27/34/52 26/33/51 3/13/21 9/16/24
s 9
f 28/35/54 27/34/53 9/16/65 13/28/66
s 2
f 13/28/67 14/27/68 29/36/56 28/35/55
s 8
f 10/15/69 30/37/58 29/36/57 14/27/70
s 6
f 4/14/22 31/38/60 30/37/59 10/15/23
s 4
f 34/40/71 35/39/62 31/30/61 4/42/72
s 1
f 1/64/73 2/65/74 34/61/2 33/60/1
s 4
f 2/43/75 32/44/76 35/39/62 34/40/71
f 36/9/14 35/39/62 32/44/76 24/46/77
f 37/10/15 36/9/14 24/46/77 8/47/78
s 3
f 38/48/12 37/45/11 8/66/79 7/67/80
s 5
f 7/68/81 17/69/82 39/11/18 38/1/17
f 33/32/63 40/22/49 25/70/83 1/71/84
s off
f 39/51/85 17/52/86 41/55/87 42/50/88
f 25/58/89 40/59/90 44/49/91 43/72/92
f 40/59/93 39/51/94 42/50/95 44/49/96
f 42/53/97 41/54/98 43/56/99 44/57/100
