# This file uses centimeters as units for non-parametric coordinates.

mtllib HouseAccesories.mtl
g default
v -8759.645508 409.941101 -1414.501099
v -8759.645508 481.683411 -1414.501099
v -8336.945312 409.941101 -1414.501099
v -8336.945312 481.683411 -1414.501099
v -8758.929688 393.426819 -522.208984
v -8758.929688 465.169128 -522.208984
v -8758.929688 393.426819 -1416.539551
v -8758.929688 465.169128 -1416.539551
v -8766.570312 465.548645 -518.839111
v -8659.074219 501.063385 -518.839111
v -8659.074219 501.063385 -1421.151855
v -8766.570312 465.548645 -1421.151855
v -8578.590820 557.559692 -518.839111
v -8578.590820 557.559692 -1421.151855
v -8527.488281 627.251160 -518.839111
v -8527.488281 627.251160 -1421.151855
v -8448.424805 731.972473 -518.839111
v -8448.424805 731.972473 -1421.151855
vt 0.467172 0.322971
vt 0.415317 0.322971
vt 0.415317 0.017477
vt 0.467172 0.017477
vt 0.396573 0.664052
vt 0.344720 0.664052
vt 0.344720 0.017675
vt 0.396573 0.017675
vt 0.321175 0.665993
vt 0.239505 0.666238
vt 0.238972 0.014951
vt 0.320667 0.015231
vt 0.167919 0.014573
vt 0.168509 0.666711
vt 0.106035 0.667170
vt 0.105399 0.014269
vt 0.011057 0.667657
vt 0.010398 0.014129
vn 0.000000 0.000000 -1.000000
vn 0.000000 0.000000 -1.000000
vn 0.000000 0.000000 -1.000000
vn 0.000000 0.000000 -1.000000
vn -1.000000 0.000000 0.000000
vn -1.000000 0.000000 0.000000
vn -1.000000 0.000000 0.000000
vn -1.000000 0.000000 0.000000
vn -0.313705 0.949521 0.000000
vn -0.439635 0.898177 0.000000
vn -0.439635 0.898177 0.000000
vn -0.313705 0.949521 0.000000
vn -0.692148 0.721756 0.000000
vn -0.692148 0.721756 0.000000
vn -0.801417 0.598106 0.000000
vn -0.801417 0.598106 0.000000
vn -0.798085 0.602545 0.000000
vn -0.798085 0.602545 0.000000
s off
g pPlane220
usemtl lambert5SG
f 1/1/1 2/2/2 4/3/3 3/4/4
f 5/5/5 6/6/6 8/7/7 7/8/8
s 1
f 9/9/9 10/10/10 11/11/11 12/12/12
f 14/13/13 13/14/14 15/15/15 16/16/16
f 11/11/11 10/10/10 13/14/14 14/13/13
f 16/16/16 15/15/15 17/17/17 18/18/18
